<svg version="1.2" xmlns="http://www.w3.org/2000/svg" viewBox="0 0 240 80" width="240" height="80">
	<title>logoUnify</title>
	<style>
		.s0 { fill: #ffffff } 
	</style>
	<path fill-rule="evenodd" class="s0" d="m150 21c-4.8 0-8.6-3.9-8.6-8.8 0-4.9 3.8-8.9 8.6-8.9 4.7 0 8.5 4 8.5 8.9 0 4.9-3.8 8.8-8.5 8.8zm77.2 0c-4.7 0-8.5-3.9-8.5-8.8 0-4.9 3.8-8.9 8.5-8.9 4.8 0 8.6 4 8.6 8.9 0 4.9-3.8 8.8-8.6 8.8zm-69.8 6.2v48.9h-14.8v-48.9zm54.3-8.4h-27.1v17.3h22.8v13.3h-22.8v26.7h-14.9v-70.6h42zm22.9 8.3v49h-14.8v-49zm-178.4 8.9v-8.9h8.6v8.9h8.6v2.8c0 3.3-0.2 7.2-0.8 10.2-0.4 1.7-0.9 3.4-1.5 5-0.7 1.6-1.4 3.2-2.2 4.7q-1.5 2.7-3.6 5.3l-0.1 0.1q-0.5 0.7-1.1 1.3-0.6 0.7-1.3 1.3c-5.5 5.5-12.7 8.9-20.2 9.7-0.9 0.1-2.7 0.2-3.6 0.2-0.9 0-2.7-0.1-3.6-0.2-7.6-0.8-14.7-4.2-20.3-9.7q-0.6-0.6-1.3-1.3-0.5-0.6-1.1-1.3l-0.1-0.1q-2-2.6-3.6-5.3c-0.8-1.5-1.5-3-2.1-4.7-0.6-1.6-1.1-3.3-1.5-5-0.6-3-0.9-6.9-0.9-10.2v-33.4h17.2v30.6c0 0 0 2.4 0.1 3.2v0.1c0 1 0 2 0.1 3 0.3 2.7 0.9 5.3 2.1 7.5q0.5 1 1.2 1.9c2.6 3.5 6.5 6.2 11.4 7 0.6 0 1.8 0.1 2.4 0.1 0.6 0 1.7-0.1 2.3-0.1 4.9-0.8 8.9-3.5 11.5-7q0.6-0.9 1.1-1.9c1.2-2.2 1.8-4.8 2.1-7.5 0.1-1 0.1-2 0.2-3v-0.1c0-0.8 0-3.2 0-3.2zm8.6-17.8h-6.4v-6.6h6.4zm2.2-13.4h4.3v4.5h-4.3zm6.4 22.2h-8.6v-3.9-5h8.6zm56.7 49h-14.7v-28.8c0 0 0-1 0-1.3q-0.1-0.7-0.1-1.4c-0.1-1.2-0.4-2.3-0.9-3.2q-0.2-0.4-0.5-0.8c-1.1-1.6-2.8-2.7-4.9-3-0.3-0.1-0.8-0.1-1-0.1-0.3 0-0.8 0-1 0.1-2.2 0.3-3.9 1.4-5 3q-0.2 0.4-0.5 0.8c-0.5 0.9-0.7 2-0.9 3.2q0 0.7 0 1.4c0 0.3 0 1.3 0 1.3v28.7h-14.8v-48.9h14.2v4.4c0 0 5.1-6.5 15.2-6 9 0.4 14.9 7.6 14.9 17.3z"/>
</svg>