<svg width="36" height="12" viewBox="0 0 36 12" fill="none" xmlns="http://www.w3.org/2000/svg">
<path fill-rule="evenodd" clip-rule="evenodd" d="M21.2105 1.83535C21.2105 2.55528 21.7888 3.15241 22.5029 3.15241C23.2001 3.15241 23.7784 2.57209 23.7784 1.83461C23.7784 1.09714 23.2179 0.5 22.5029 0.5C21.7881 0.5 21.2105 1.11541 21.2105 1.83535ZM32.8034 1.83535C32.8034 2.55528 33.3816 3.15241 34.0958 3.15241C34.793 3.15241 35.3712 2.57209 35.3712 1.83461C35.3712 1.09714 34.8099 0.5 34.0958 0.5C33.3816 0.5 32.8034 1.11541 32.8034 1.83535ZM23.6064 4.0792H21.3826V11.4181H23.6064V4.0792ZM31.7622 0.824549H25.4658V11.4188H27.6896V7.41649H31.116V5.41384H27.6896V2.8272H31.7622V0.824549ZM35.1992 4.0792H32.9753V11.4181H35.1992V4.0792ZM8.43934 5.41384V4.07703H9.73175V5.41165H11.0234V5.8341C11.0234 6.32307 10.9831 6.90194 10.8904 7.35729C10.8387 7.61164 10.7601 7.86453 10.6682 8.10718C10.574 8.35496 10.465 8.59246 10.3468 8.80594C10.1925 9.08369 10.0134 9.35115 9.80601 9.60187L9.78988 9.62151C9.73601 9.6872 9.68268 9.75218 9.62417 9.81527C9.56117 9.88544 9.49535 9.9512 9.42878 10.017C8.60209 10.8393 7.52415 11.3524 6.39807 11.4708C6.26288 11.4854 5.99038 11.5 5.85449 11.5C5.71859 11.4993 5.4461 11.4847 5.31091 11.4708C4.18412 11.3524 3.10688 10.8393 2.28018 10.017L2.27948 10.0163C2.21319 9.95002 2.1476 9.88449 2.08483 9.81527C2.02628 9.75218 1.97299 9.6872 1.91911 9.62159L1.90294 9.60187C1.69556 9.35115 1.51648 9.0844 1.36219 8.80594C1.24399 8.59325 1.13499 8.35569 1.04085 8.10718C0.948843 7.86453 0.870278 7.61164 0.81861 7.35729C0.725891 6.90194 0.685547 6.32307 0.685547 5.8341V0.824549H3.26825V5.41384C3.26825 5.41384 3.26825 5.7654 3.2725 5.88088L3.27328 5.90296C3.27864 6.05381 3.28387 6.20087 3.29939 6.34792C3.34186 6.76015 3.43033 7.15117 3.61223 7.48154C3.66461 7.57729 3.7184 7.67011 3.7821 7.75782C4.17067 8.29283 4.76238 8.69484 5.49989 8.80665C5.58765 8.81977 5.76531 8.83148 5.85378 8.83148C5.94297 8.83148 6.11991 8.81977 6.20767 8.80665C6.94518 8.69484 7.5369 8.29283 7.92546 7.75782C7.98916 7.66938 8.04296 7.57729 8.09534 7.48154C8.27724 7.15044 8.36569 6.76015 8.40814 6.34792C8.42367 6.20088 8.42892 6.05384 8.43432 5.90299L8.43508 5.88088C8.43934 5.7654 8.43934 5.41384 8.43934 5.41384ZM9.73031 1.74256H8.76134V2.74315H9.73031V1.74256ZM10.0538 0.741236H10.7V1.40854H10.0538V0.741236ZM11.0227 4.07703H9.73099V3.49231L9.73031 2.74315L11.0227 2.74314V4.07703ZM19.5232 11.4188H17.3142V7.10436C17.3142 7.10436 17.3142 6.95307 17.3121 6.90337C17.31 6.83539 17.3079 6.76888 17.3008 6.70237C17.2824 6.52476 17.2449 6.35666 17.1663 6.21487C17.1437 6.17393 17.121 6.13447 17.0934 6.09646C16.9264 5.86622 16.6723 5.69374 16.3552 5.6455C16.3177 5.63965 16.2412 5.63453 16.203 5.63453C16.1648 5.63453 16.0884 5.63965 16.0509 5.6455C15.7337 5.69374 15.4797 5.86622 15.3126 6.09646C15.285 6.13374 15.2624 6.17393 15.2397 6.21487C15.1612 6.35739 15.1237 6.52549 15.1052 6.70237C15.0989 6.76888 15.096 6.83539 15.0939 6.90337C15.0918 6.95307 15.0918 7.10436 15.0918 7.10436V11.4108H12.8828V4.07188H15.0111V4.73919C15.0111 4.73919 15.7691 3.7649 17.2809 3.83361C18.6399 3.89574 19.5232 4.97234 19.5232 6.43559V11.4188Z" fill="white"/>
</svg>
