<svg version="1.2" xmlns="http://www.w3.org/2000/svg" viewBox="0 0 312 80" width="312" height="80">
	<title>logoReolink</title>
	<style>
		.s0 { fill: #9dd0ff } 
	</style>
	<path class="s0" d="m186.2 36.5v34.7h11.5v-44.1l-9 5.1c-1.5 0.9-2.5 2.5-2.5 4.3z"/>
	<path class="s0" d="m191.9 20.3c3.6 0 6.6-3 6.6-6.6 0-3.6-3-6.6-6.6-6.6-3.6 0-6.5 3-6.5 6.6 0 3.6 2.9 6.6 6.5 6.6z"/>
	<path class="s0" d="m165 7.1v64.1h11.4v-54.5c0-1.8-0.9-3.4-2.4-4.3z"/>
	<path class="s0" d="m253.2 43.3c0-12.7-10.2-23-22.9-23-12.6 0-22.8 10.3-22.8 23v27.9h11.4c0-5.4 0-22.6 0-27.9 0-6.4 5.1-11.5 11.4-11.5 6.3 0 11.5 5.1 11.5 11.5v27.9h11.4z"/>
	<path class="s0" d="m23.2 37c-1.3-1.2-2.9-1.9-4.7-1.9h-7.1v-16.5h21.3c4.5 0 8.1 3.7 8.1 8.2 0 4.6-3.6 8.3-8.1 8.3h-4.5l10.5 10.5c7.9-2.5 13.6-10 13.6-18.8 0-10.9-8.8-19.7-19.6-19.7h-32.7v39.5h13c2.1 0 4.2 0.8 5.7 2.4l20.7 20.8c0.9 0.9 2.2 1.4 3.5 1.4h14.3l-34.1-34.2z"/>
	<path fill-rule="evenodd" class="s0" d="m274.4 7.1v64.1h-11.4v-64.1z"/>
	<path class="s0" d="m312 71.2l-26.1-26.3 22.8-23h-14.3c-1.3 0-2.5 0.5-3.4 1.4l-21.5 21.6 24.7 24.9c1 0.9 2.2 1.4 3.5 1.4h14.3z"/>
	<path class="s0" d="m133.9 20.3c-12.6 0-22.8 10.3-22.8 23v6.6c0 12.7 10.2 23 22.8 23 12.7 0 22.9-10.3 22.9-23v-6.6c0-12.7-10.2-23-22.9-23zm11.5 29.6c0 6.3-5.1 11.5-11.5 11.5-6.3 0-11.4-5.2-11.4-11.5v-6.6c0-6.4 5.1-11.5 11.4-11.5 6.4 0 11.5 5.1 11.5 11.5z"/>
	<path class="s0" d="m98.6 27.8c-4.2-4.6-10.2-7.5-16.9-7.5-6.7 0-12.6 2.8-16.8 7.3-3.7 4.1-6.1 9.6-6.1 15.6 0 1.7 0 4.5 0 6.2-0.1 6.3 2.3 12.1 6.3 16.4 4.2 4.4 10.1 7.1 16.6 7.1 6.5 0 12.5-2.8 16.7-7.3 2-2.2 3.6-4.7 4.6-7.5h-12.1c-0.7 0-1.4 0.2-2 0.7-2 1.6-4.5 2.6-7.2 2.6-5.2 0-9.6-3.5-11-8.3h30.6c1.8 0 3.2-1.4 3.2-3.3v-6.5c0-6-2.2-11.4-5.9-15.5zm-28.2 13.8c0.8-5.5 5.5-9.8 11.3-9.8 5.7 0 10.5 4.2 11.3 9.8h-22.6z"/>
</svg>