<svg width="39" height="10" viewBox="0 0 39 10" fill="none" xmlns="http://www.w3.org/2000/svg">
<path d="M23.2773 4.56474V8.90543H24.7068V3.38867L23.5874 4.02822C23.3958 4.13788 23.2773 4.34248 23.2773 4.564V4.56474Z" fill="#9DD0FF"/>
<path d="M23.9913 2.53428C24.4427 2.53428 24.8087 2.1659 24.8087 1.71147C24.8087 1.25705 24.4427 0.888672 23.9913 0.888672C23.5398 0.888672 23.1738 1.25705 23.1738 1.71147C23.1738 2.1659 23.5398 2.53428 23.9913 2.53428Z" fill="#9DD0FF"/>
<path d="M20.623 0.888672V8.90475H22.0525V2.0824C22.0525 1.86308 21.937 1.65996 21.7483 1.54956L20.623 0.888672Z" fill="#9DD0FF"/>
<path d="M31.6494 5.41178C31.6494 3.82284 30.3699 2.53418 28.7905 2.53418C27.2112 2.53418 25.9316 3.82211 25.9316 5.41178V8.90612H27.3611C27.3611 8.23051 27.3611 6.07856 27.3611 5.41178C27.3611 4.61695 28.0009 3.97298 28.7905 3.97298C29.5802 3.97298 30.22 4.61695 30.22 5.41178V8.90538H31.6494V5.41178Z" fill="#9DD0FF"/>
<path d="M2.89398 4.62367C2.74117 4.46985 2.53278 4.38301 2.31635 4.38301H1.42944V2.32747H4.08433C4.64806 2.32747 5.10505 2.78745 5.10505 3.35487C5.10505 3.9223 4.64806 4.38227 4.08433 4.38227H3.52133L4.83378 5.70332C5.82013 5.38465 6.53449 4.45366 6.53449 3.35487C6.53376 1.99261 5.437 0.888672 4.0836 0.888672H0V5.82107H1.61882C1.88935 5.82107 2.14892 5.92926 2.34048 6.12208L4.92518 8.72296C5.03997 8.83851 5.19571 8.90327 5.35803 8.90327H7.14575L2.89325 4.62293L2.89398 4.62367Z" fill="#9DD0FF"/>
<path d="M34.3035 0.888672H32.874V8.90548H34.3035V0.888672Z" fill="#9DD0FF"/>
<path d="M38.9997 8.90415L35.7328 5.61588L38.5917 2.73828H36.804C36.6417 2.73828 36.4859 2.80305 36.3712 2.91859L33.6914 5.61515L36.7791 8.72237C36.8939 8.83792 37.0497 8.90268 37.212 8.90268H39.0004L38.9997 8.90415Z" fill="#9DD0FF"/>
<path d="M16.7427 2.53418C15.1641 2.53418 13.8838 3.82211 13.8838 5.41178V6.23385C13.8838 7.82279 15.1633 9.11145 16.7427 9.11145C18.322 9.11145 19.6016 7.82352 19.6016 6.23385V5.41178C19.6016 3.82284 18.322 2.53418 16.7427 2.53418ZM18.1721 6.23238C18.1721 7.02721 17.5323 7.67118 16.7427 7.67118C15.953 7.67118 15.3132 7.02721 15.3132 6.23238V5.41031C15.3132 4.61547 15.953 3.97151 16.7427 3.97151C17.5323 3.97151 18.1721 4.61547 18.1721 5.41031V6.23238Z" fill="#9DD0FF"/>
<path d="M12.3276 3.47915C11.8048 2.89848 11.0495 2.53418 10.2094 2.53418C9.36929 2.53418 8.63958 2.8867 8.11825 3.44971C7.64518 3.96047 7.35418 4.64491 7.35125 5.3978C7.35125 5.60976 7.35125 5.95713 7.35125 6.16982C7.33443 6.96539 7.63787 7.68958 8.14165 8.2202C8.66224 8.76923 9.39634 9.11072 10.2094 9.11072C11.0225 9.11072 11.777 8.75893 12.2984 8.19665C12.5484 7.92729 12.7473 7.60936 12.8804 7.25904H11.3639C11.2718 7.25904 11.1819 7.28995 11.1102 7.34809C10.8645 7.54901 10.5509 7.66971 10.2094 7.66971C9.56232 7.66971 9.0154 7.23623 8.83992 6.64231H12.6596C12.8848 6.64231 13.0683 6.45832 13.0683 6.23091V5.41031C13.0683 4.66699 12.7882 3.98917 12.3283 3.47842L12.3276 3.47915ZM8.79458 5.20424C8.89402 4.50729 9.4892 3.97077 10.2094 3.97077C10.9296 3.97077 11.5248 4.50655 11.6242 5.20424H8.79532H8.79458Z" fill="#9DD0FF"/>
</svg>
