<svg version="1.2" xmlns="http://www.w3.org/2000/svg" viewBox="0 0 80 80" width="80" height="80">
	<title>logoDell</title>
	<style>
		.s0 { fill: #006eff } 
	</style>
	<g>
		<path class="s0" d="m35.6 0.6c-9.1 1.1-17.2 5-23.6 11.4-9.3 9.3-13.4 22.6-10.9 35.5 2.2 11.6 9.6 21.7 20.2 27.5 5.9 3.2 14.2 5.1 20.8 4.6 10.1-0.6 18.9-4.6 25.9-11.6 5.7-5.7 9.4-12.7 10.9-20.5 2.5-12.9-1.6-26.2-10.9-35.5-5.7-5.7-12.7-9.4-20.6-11-3.2-0.6-8.8-0.8-11.8-0.4zm11.9 4.7c12.6 2.9 22.4 11.8 26.2 23.8 1.4 4.2 1.6 6 1.6 10.9 0 4.9-0.2 6.7-1.6 10.9-3.9 12.3-14.4 21.5-27.4 24.1-2.8 0.5-10.4 0.4-13.2-0.1-14.4-3.2-24.8-13.6-27.9-28-0.7-3.2-0.7-10.6 0-13.8 3.2-15 14.7-25.9 29.9-28.3 2.6-0.4 9.8-0.1 12.4 0.5z"/>
		<path class="s0" d="m30.6 32.9c-2.3 1.9-4.3 3.4-4.4 3.3-0.1 0-0.5-0.5-1-1.2-0.4-0.7-1.3-1.6-1.9-2.1-1.9-1.4-3.3-1.7-8.4-1.7h-4.5v8.6 8.5l4.7-0.1c4-0.1 5-0.2 6.1-0.7 1.9-0.7 3.1-1.7 4.2-3.3l0.8-1.3 1.1 0.9c2.1 1.7 7.2 5.7 7.6 5.9 0.1 0.1 2.2-1.3 5-3.6 2.6-2 4.8-3.7 5-3.7 0.1 0 0.2 1.3 0.2 2.9v3h5.8 5.9v-2.6-2.5h-3-3l0.1-6 0.1-6h-3-2.9v2.9 2.9l-4.1 3.2c-2.3 1.8-4.3 3.3-4.4 3.3-0.4-0.1-1.5-1.1-1.3-1.3 0.1-0.2 5.6-4.6 7.6-6.1 0.3-0.2 0-0.5-1.3-1.5l-1.6-1.3-4.1 3.2-4.2 3.3-0.8-0.7-0.8-0.7 4-3.1c2.1-1.7 3.9-3.2 4-3.3 0.1-0.2-2.7-2.4-3.1-2.4-0.1 0-2.1 1.5-4.4 3.3zm-11.3 3.5c2.4 1.1 2.6 4.7 0.4 6.3-0.5 0.4-1.2 0.6-2.1 0.6h-1.5v-3.3c-0.1-1.8 0-3.5 0-3.7 0.2-0.4 2.2-0.4 3.2 0.1z"/>
		<path class="s0" d="m58.4 39.7v8.6h5.9 5.8v-2.6-2.5h-2.9-2.9v-6-6h-3-2.9z"/>
	</g>
</svg>