<svg version="1.2" xmlns="http://www.w3.org/2000/svg" viewBox="0 0 248 80" width="248" height="80">
	<title>logoLenovo</title>
	<style>
		.s0 { fill: #ffffff } 
		.s1 { fill: #e1251b } 
	</style>
	<g id="masthead-logo-lenovo-red">
		<g id="LenovoLogo-POS-1Color">
			<path id="mask" fill-rule="evenodd" class="s0" d="m248 0v80h-248v-80z"/>
			<path id="logo-red" class="s1" d="m0 80v-80h248v80zm51.7-29.8h-19.8v-33.3h-8.9v41.3h28.7zm30.3-19.1q-1.2-1.3-2.7-2.3-1.4-1-3-1.7-1.7-0.7-3.4-1-1.7-0.3-3.5-0.2c-2.2-0.1-4.4 0.3-6.4 1.1-2.1 0.8-4 2-5.5 3.5-1.6 1.5-2.9 3.4-3.7 5.4-0.8 2-1.3 4.2-1.2 6.4 0 9.6 7.2 16.5 17.8 16.5q2 0 4-0.4 2.1-0.4 4-1.2 1.9-0.8 3.6-1.9 1.7-1.2 3.2-2.6l-5.6-4.3q-0.9 0.9-2 1.5-1 0.7-2.2 1.1-1.2 0.4-2.4 0.6-1.2 0.2-2.5 0.2-1 0.1-1.9-0.1-1-0.1-1.9-0.5-0.9-0.3-1.7-0.8-0.8-0.5-1.5-1.2l22.3-9.2q-0.1-1.2-0.5-2.4-0.3-1.2-0.8-2.3-0.5-1.2-1.1-2.2-0.6-1.1-1.4-2zm39 7.4c0-1.7-0.3-3.4-0.9-5-0.6-1.5-1.6-3-2.8-4.1-1.2-1.2-2.7-2.2-4.3-2.8-1.6-0.6-3.3-0.8-5-0.7q-1.5 0-2.9 0.3-1.5 0.4-2.8 1-1.4 0.7-2.5 1.6-1.2 1-2.1 2.2v-4.6h-8.8v31.8h8.8v-18.1q0-1.4 0.6-2.7 0.5-1.2 1.5-2.2 1.1-0.9 2.4-1.4 1.3-0.5 2.7-0.4 1.4-0.1 2.7 0.4 1.3 0.5 2.4 1.4 1 1 1.6 2.2 0.6 1.3 0.6 2.7v18.1h8.8c0 0 0-19.7 0-19.7zm20.6-12.6c-6.6 0.2-12.4 4.4-14.8 10.5-2.4 6.2-0.8 13.2 3.9 17.8 4.8 4.6 11.8 5.9 17.9 3.3 6.1-2.6 10-8.6 10-15.2 0-2.2-0.5-4.4-1.3-6.4-0.9-2-2.2-3.8-3.8-5.4-1.5-1.5-3.4-2.7-5.5-3.5-2-0.8-4.2-1.2-6.4-1.1zm41.5 0.5l-7.9 21.7-7.9-21.7h-10l13.1 31.8h9.5l13.1-31.8zm25.8-0.5c-6.6 0.2-12.4 4.4-14.8 10.5-2.3 6.2-0.8 13.2 4 17.8 4.7 4.6 11.8 5.9 17.8 3.3 6.1-2.6 10.1-8.6 10.1-15.2-0.1-2.2-0.5-4.4-1.4-6.4-0.9-2-2.1-3.8-3.7-5.4-1.6-1.5-3.5-2.7-5.5-3.5-2.1-0.8-4.3-1.2-6.5-1.1zm0 25.4c-1.1 0-2.3-0.3-3.3-0.8-1.1-0.4-2-1.1-2.8-1.9-0.8-0.8-1.4-1.8-1.9-2.9-0.4-1.1-0.6-2.2-0.5-3.4-0.1-1.1 0.1-2.3 0.4-3.4 0.4-1.1 1-2.1 1.8-2.9 0.8-0.8 1.8-1.5 2.8-2 1.1-0.4 2.2-0.7 3.4-0.6 1.1 0 2.3 0.2 3.3 0.7 1.1 0.4 2.1 1.1 2.8 1.9 0.8 0.9 1.5 1.9 1.9 2.9 0.4 1.1 0.6 2.3 0.5 3.4 0.1 1.2-0.1 2.3-0.4 3.4-0.4 1.1-1 2.1-1.8 2.9-0.8 0.9-1.8 1.5-2.8 2-1.1 0.4-2.2 0.7-3.4 0.7zm-67.2 0c-1.2 0-2.3-0.3-3.4-0.8-1-0.4-2-1.1-2.8-1.9-0.8-0.8-1.4-1.8-1.8-2.9-0.4-1.1-0.6-2.2-0.6-3.4-0.1-1.1 0.1-2.3 0.5-3.4 0.4-1.1 1-2.1 1.8-2.9 0.8-0.8 1.7-1.5 2.8-2 1-0.4 2.2-0.7 3.3-0.6 1.2 0 2.3 0.2 3.4 0.7 1 0.4 2 1.1 2.8 1.9 0.8 0.9 1.4 1.9 1.8 2.9 0.4 1.1 0.6 2.3 0.6 3.4 0 1.2-0.1 2.3-0.5 3.4-0.4 1.1-1 2.1-1.8 2.9-0.8 0.8-1.7 1.5-2.8 2-1.1 0.4-2.2 0.7-3.3 0.7zm-78.8-15.3q0.6-0.8 1.4-1.4 0.7-0.6 1.6-1 0.9-0.4 1.8-0.6 1-0.2 1.9-0.2 1.1 0 2.2 0.3 1 0.3 1.9 0.9 0.9 0.6 1.6 1.4 0.7 0.9 1.1 1.9l-15.2 6.3q-0.2-1-0.2-2 0.1-1 0.3-2 0.2-1 0.6-1.9 0.4-0.9 1-1.7z"/>
		</g>
	</g>
</svg>