<?xml version="1.0" standalone="no"?>
<!DOCTYPE svg PUBLIC "-//W3C//DTD SVG 20010904//EN"
 "http://www.w3.org/TR/2001/REC-SVG-20010904/DTD/svg10.dtd">
<svg version="1.0" xmlns="http://www.w3.org/2000/svg"
 width="300.000000pt" height="300.000000pt" viewBox="0 0 300.000000 300.000000"
 preserveAspectRatio="xMidYMid meet">
<metadata>
Created by potrace 1.10, written by Peter Selinger 2001-2011
</metadata>
<g transform="translate(0.000000,300.000000) scale(0.100000,-0.100000)"
fill="#006eff" stroke="none">
<path d="M1335 2979 c-340 -41 -645 -189 -886 -430 -348 -347 -502 -847 -409
-1330 84 -437 362 -814 760 -1031 221 -121 531 -190 780 -173 376 24 709 173
970 435 213 212 354 477 410 769 93 483 -61 983 -409 1331 -214 214 -477 354
-773 411 -119 23 -331 32 -443 18z m445 -178 c472 -108 841 -443 984 -891 51
-160 61 -227 61 -410 0 -183 -10 -251 -61 -410 -147 -461 -540 -806 -1029
-901 -105 -21 -389 -18 -493 4 -539 117 -931 509 -1048 1047 -26 120 -26 400
0 520 122 563 554 971 1121 1060 97 15 367 4 465 -19z"/>
<path d="M1148 1765 c-87 -69 -161 -125 -165 -124 -5 0 -21 21 -38 47 -16 25
-49 61 -73 79 -69 52 -123 63 -314 63 l-168 0 0 -321 0 -321 178 4 c149 3 185
7 228 25 70 28 117 65 155 124 l31 49 42 -33 c79 -64 271 -214 283 -221 7 -4
84 50 190 134 98 77 181 140 186 140 4 0 7 -49 7 -110 l0 -110 220 0 220 0 0
95 0 95 -112 0 -113 0 3 225 3 225 -111 0 -110 0 0 -109 0 -108 -154 -122
c-85 -66 -158 -121 -162 -121 -17 1 -56 39 -50 49 5 7 210 171 284 226 11 9 1
21 -47 59 l-61 48 -155 -122 -155 -121 -30 25 -30 25 148 116 c81 64 148 120
150 124 3 9 -100 91 -114 91 -5 -1 -80 -57 -166 -125z m-423 -131 c90 -42 97
-176 14 -237 -18 -12 -45 -20 -80 -21 l-54 -1 -3 124 c-1 69 0 131 2 138 7 18
81 17 121 -3z"/>
<path d="M2190 1510 l0 -320 220 0 220 0 0 95 0 95 -110 0 -110 0 0 225 0 225
-110 0 -110 0 0 -320z"/>
</g>
</svg>
