<svg width="30" height="30" viewBox="0 0 30 30" fill="none" xmlns="http://www.w3.org/2000/svg">
<path fill-rule="evenodd" clip-rule="evenodd" d="M18.3333 0V3.33333H3.33333V26.6667H26.6667V11.6667H30V28.3333C30 28.7754 29.8244 29.1993 29.5118 29.5118C29.1993 29.8244 28.7754 30 28.3333 30H1.66667C1.22464 30 0.800716 29.8244 0.488155 29.5118C0.175595 29.1993 0 28.7754 0 28.3333V1.66667C0 1.22464 0.175595 0.800716 0.488155 0.488155C0.800716 0.175595 1.22464 0 1.66667 0H18.3333ZM28.2333 0.59L29.4117 1.76833C29.5679 1.92461 29.6557 2.13653 29.6557 2.3575C29.6557 2.57847 29.5679 2.79039 29.4117 2.94667L13.8567 18.5L10.5367 20.1333C10.4429 20.1798 10.3369 20.1957 10.2337 20.1787C10.1305 20.1618 10.0351 20.1128 9.96114 20.0389C9.88715 19.9649 9.83824 19.8695 9.8213 19.7663C9.80435 19.6631 9.82022 19.5571 9.86667 19.4633L11.5 16.1433L27.055 0.588333C27.2113 0.432107 27.4232 0.344345 27.6442 0.344345C27.8651 0.344345 28.0771 0.432107 28.2333 0.588333V0.59Z" fill="#9743FF"/>
</svg>
