<svg width="46" height="46" viewBox="0 0 46 46" fill="none" xmlns="http://www.w3.org/2000/svg">
<path d="M7.66704 36.4167L5.88454 35.7076C5.75718 36.028 5.71863 36.3769 5.77297 36.7175C5.8273 37.058 5.9725 37.3776 6.19327 37.6425C6.41403 37.9074 6.70218 38.1079 7.02734 38.2227C7.35249 38.3376 7.70261 38.3626 8.04079 38.2951L7.66704 36.4167ZM16.6869 34.6227L17.5954 32.9342L16.9878 32.6083L16.3131 32.7425L16.6869 34.6227ZM10.7797 28.591L12.5622 29.3002L12.8746 28.5067L12.499 27.7419L10.7797 28.591ZM36.417 23.0001C36.417 29.2216 30.9488 34.5001 23.9012 34.5001V38.3334C32.7965 38.3334 40.2504 31.5982 40.2504 23.0001H36.417ZM11.3873 23.0001C11.3873 16.7786 16.8575 11.5001 23.9031 11.5001V7.66675C15.0079 7.66675 7.55204 14.4019 7.55204 23.0001H11.3873ZM23.9031 11.5001C30.9488 11.5001 36.417 16.7786 36.417 23.0001H40.2504C40.2504 14.4019 32.7984 7.66675 23.9031 7.66675V11.5001ZM23.9012 34.5001C21.5916 34.5001 19.4411 33.9251 17.5954 32.9342L15.7784 36.3094C18.2764 37.6486 21.0669 38.3442 23.9012 38.3334V34.5001ZM8.04079 38.2951L17.0606 36.5011L16.3131 32.7425L7.29329 34.5365L8.04079 38.297V38.2951ZM12.499 27.7419C11.7693 26.2675 11.3902 24.6451 11.3873 23.0001H7.55204C7.55204 25.3001 8.09254 27.4812 9.05854 29.4401L12.499 27.7419ZM8.99912 27.8818L5.88454 35.7095L9.44571 37.124L12.5584 29.2982L8.99721 27.8818H8.99912Z" fill="#0083F3"/>
<path d="M17.2507 24.9168C18.3092 24.9168 19.1673 24.0587 19.1673 23.0002C19.1673 21.9416 18.3092 21.0835 17.2507 21.0835C16.1921 21.0835 15.334 21.9416 15.334 23.0002C15.334 24.0587 16.1921 24.9168 17.2507 24.9168Z" fill="#0083F3"/>
<path d="M23.9587 24.9168C25.0172 24.9168 25.8753 24.0587 25.8753 23.0002C25.8753 21.9416 25.0172 21.0835 23.9587 21.0835C22.9001 21.0835 22.042 21.9416 22.042 23.0002C22.042 24.0587 22.9001 24.9168 23.9587 24.9168Z" fill="#0083F3"/>
<path d="M30.6667 24.9168C31.7252 24.9168 32.5833 24.0587 32.5833 23.0002C32.5833 21.9416 31.7252 21.0835 30.6667 21.0835C29.6081 21.0835 28.75 21.9416 28.75 23.0002C28.75 24.0587 29.6081 24.9168 30.6667 24.9168Z" fill="#0083F3"/>
</svg>
