<svg width="36" height="35" viewBox="0 0 36 35" fill="none" xmlns="http://www.w3.org/2000/svg">
<path d="M21.25 3.31213C21.25 2.173 20.327 1.25 19.1879 1.25H16.8138C15.673 1.25 14.75 2.173 14.75 3.31213C14.75 4.25138 14.1065 5.05737 13.2306 5.40187C13.092 5.45821 12.9549 5.51562 12.8195 5.57412C11.9566 5.94787 10.9312 5.83413 10.265 5.1695C9.87811 4.78349 9.3539 4.56671 8.80737 4.56671C8.26085 4.56671 7.73664 4.78349 7.34975 5.1695L5.6695 6.84975C5.28349 7.23664 5.06671 7.76085 5.06671 8.30737C5.06671 8.8539 5.28349 9.37811 5.6695 9.765C6.33575 10.4312 6.4495 11.455 6.0725 12.3195C6.01328 12.4556 5.9564 12.5926 5.90187 12.7306C5.55737 13.6065 4.75138 14.25 3.81213 14.25C2.673 14.25 1.75 15.173 1.75 16.3121V18.6879C1.75 19.827 2.673 20.75 3.81213 20.75C4.75138 20.75 5.55737 21.3935 5.90187 22.2694C5.95821 22.408 6.01508 22.5451 6.0725 22.6805C6.44787 23.5434 6.33413 24.5688 5.6695 25.235C5.28349 25.6219 5.06671 26.1461 5.06671 26.6926C5.06671 27.2391 5.28349 27.7634 5.6695 28.1503L7.34975 29.8305C7.73664 30.2165 8.26085 30.4333 8.80737 30.4333C9.3539 30.4333 9.87811 30.2165 10.265 29.8305C10.9312 29.1642 11.955 29.0505 12.8195 29.4259C12.9549 29.4855 13.092 29.5429 13.2306 29.5981C14.1065 29.9426 14.75 30.7486 14.75 31.6879C14.75 32.827 15.673 33.75 16.8121 33.75H19.1879C20.327 33.75 21.25 32.827 21.25 31.6879C21.25 30.7486 21.8935 29.9426 22.7694 29.5965C22.908 29.5423 23.0451 29.486 23.1805 29.4275C24.0434 29.0505 25.0688 29.1659 25.7334 29.8305C26.1203 30.217 26.6449 30.4341 27.1918 30.4341C27.7387 30.4341 28.2633 30.217 28.6503 29.8305L30.3305 28.1503C30.7165 27.7634 30.9333 27.2391 30.9333 26.6926C30.9333 26.1461 30.7165 25.6219 30.3305 25.235C29.6642 24.5688 29.5505 23.545 29.9259 22.6805C29.9855 22.5451 30.0429 22.408 30.0981 22.2694C30.4426 21.3935 31.2486 20.75 32.1879 20.75C33.327 20.75 34.25 19.827 34.25 18.6879V16.3138C34.25 15.1746 33.327 14.2516 32.1879 14.2516C31.2486 14.2516 30.4426 13.6081 30.0965 12.7322C30.042 12.5942 29.9851 12.4572 29.9259 12.3211C29.5521 11.4582 29.6659 10.4329 30.3305 9.76663C30.7165 9.37973 30.9333 8.85552 30.9333 8.309C30.9333 7.76248 30.7165 7.23827 30.3305 6.85138L28.6503 5.17113C28.2634 4.78512 27.7391 4.56833 27.1926 4.56833C26.6461 4.56833 26.1219 4.78512 25.735 5.17113C25.0688 5.83738 24.045 5.95113 23.1805 5.57575C23.0445 5.51599 22.9074 5.45856 22.7694 5.4035C21.8935 5.05738 21.25 4.24975 21.25 3.31213Z" stroke="#00FF11" stroke-width="2"/>
<path d="M24.5 17.5C24.5 19.2239 23.8152 20.8772 22.5962 22.0962C21.3772 23.3152 19.7239 24 18 24C16.2761 24 14.6228 23.3152 13.4038 22.0962C12.1848 20.8772 11.5 19.2239 11.5 17.5C11.5 15.7761 12.1848 14.1228 13.4038 12.9038C14.6228 11.6848 16.2761 11 18 11C19.7239 11 21.3772 11.6848 22.5962 12.9038C23.8152 14.1228 24.5 15.7761 24.5 17.5Z" stroke="#00FF11" stroke-width="2"/>
</svg>
