<svg width="24" height="24" viewBox="0 0 24 24" fill="none" xmlns="http://www.w3.org/2000/svg">
<path d="M11 15H13M14.5 22L14.184 21.581C13.474 20.637 13.297 19.194 13.747 18M9.5 22L9.816 21.581C10.526 20.637 10.703 19.194 10.253 18M7 22H17M14 2H10C6.72 2 5.081 2 3.919 2.814C3.48904 3.11507 3.11507 3.48904 2.814 3.919C2 5.08 2 6.72 2 10C2 13.28 2 14.919 2.814 16.081C3.11507 16.511 3.48904 16.8849 3.919 17.186C5.08 18 6.72 18 10 18H14C17.28 18 18.919 18 20.081 17.186C20.511 16.8849 20.8849 16.511 21.186 16.081C22 14.92 22 13.28 22 10C22 6.72 22 5.081 21.186 3.919C20.8849 3.48904 20.511 3.11507 20.081 2.814C18.92 2 17.28 2 14 2Z" stroke="#FF6600" stroke-width="1.5" stroke-linecap="round" stroke-linejoin="round"/>
</svg>
