<svg width="215" height="77" viewBox="0 0 215 77" fill="none" xmlns="http://www.w3.org/2000/svg">
<path d="M207.691 37.4449C200.28 52.3144 186.843 63.7632 169.076 70.3435C151.31 76.9237 130.014 78.34 107.88 74.4131C85.7461 70.4862 63.7691 61.3926 44.728 48.2821C25.6869 35.1717 10.437 18.6332 0.906738 0.75824L5.16317 0.0874023C14.2925 17.2104 28.9009 33.053 47.1408 45.6119C65.3808 58.1708 86.4332 66.8818 107.636 70.6435C128.839 74.4052 149.239 73.0485 166.258 66.7451C183.277 60.4417 196.149 49.4746 203.247 35.2307L207.691 37.4449Z" fill="#00FF26"/>
<path fill-rule="evenodd" clip-rule="evenodd" d="M190.143 35.0219L207.451 30.0769C208.513 29.7735 209.62 30.3885 209.923 31.4505L214.868 48.758C215.172 49.82 214.557 50.927 213.495 51.2305C212.433 51.5339 211.326 50.9189 211.022 49.8569L207.404 37.1921L204.749 41.9713L201.252 40.0287L203.907 35.2495L191.242 38.868C190.18 39.1715 189.073 38.5565 188.77 37.4944C188.466 36.4323 189.081 35.3254 190.143 35.0219Z" fill="#00FF26"/>
</svg>
