<?xml version="1.0" encoding="UTF-8"?>
<svg id="Capa_1" xmlns="http://www.w3.org/2000/svg" version="1.1" viewBox="0 0 736.29 725.43">
  <!-- Generator: Adobe Illustrator 29.2.1, SVG Export Plug-In . SVG Version: 2.1.0 Build 116)  -->
  <defs>
    <style>
      .st0 {
        fill: #f60;
      }
    </style>
  </defs>
  <path class="st0" d="M523.9,247.95l-156.22,84.3c-10.74,5.8-23.68,5.8-34.42,0l-156.19-84.3c-11.72-6.33-19.03-18.57-19.03-31.89V47.14l192.45,90.2,192.44-90.2v168.91c0,13.32-7.31,25.57-19.03,31.89Z"/>
  <path class="st0" d="M158.04,269.75c-12.57,77.06,5.35,159.86,59.57,196.52,63.2,42.58,149.87,77.55,244.37,109.97,76.08,31.11,109.16,60.68,140.01,102.33,0,0,40.22-172.08-113.28-234.7-341.47-139.31-330.67-174.12-330.67-174.12Z"/>
</svg>